<svg width="84" height="84" viewBox="0 0 84 84" fill="none" xmlns="http://www.w3.org/2000/svg">
<rect width="84" height="84" rx="42" fill="white"/>
<path d="M42 74C59.6731 74 74 59.6731 74 42C74 24.3269 59.6731 10 42 10C24.3269 10 10 24.3269 10 42C10 59.6731 24.3269 74 42 74Z" fill="#E0E8E2"/>
<path d="M54.3909 46.7827C45.4391 48.7827 33.1305 55.7827 35.3684 51.2827C31.4181 48.7907 55.9524 39.3851 44.32 35.2834C50.3576 29.8851 52.1189 29.2908 56.0693 31.7828C60.0196 34.2748 58.4314 38.3586 54.3909 46.7827Z" fill="#FDF8E5"/>
<path d="M48.9746 48.5C47.2962 53 45.0582 55.5 40.023 55C35.6971 55 33.3092 51.7615 33.3092 49C31.6307 45 36.2566 47 40.5825 47C44.9084 47 48.9746 45.7386 48.9746 48.5Z" fill="#FDF8E5"/>
<path d="M24.509 45.1694C22.8351 46.4167 21.8757 48.3481 21.8757 50.4694V57.5864H21V50.4694C21 48.0616 22.0898 45.8687 23.991 44.4524C25.9303 43.0072 28.3739 42.6037 30.6959 43.347C32.8839 44.0467 34.5363 44.3968 35.4598 44.3501C39.0243 44.1851 42.0359 41.1461 42.0359 37.7144C42.0359 35.7825 41.5534 34.8137 41.0424 33.788C40.4736 32.6439 39.8278 31.3477 39.8278 28.6735V22.0013H40.7035V28.6735C40.7035 31.1356 41.2732 32.2796 41.8244 33.3863C42.3591 34.4601 42.9116 35.5704 42.9116 37.7144C42.9116 41.6069 39.5174 45.0529 35.5 45.2393C34.4518 45.2886 32.7503 44.9372 30.4327 44.1957C28.3805 43.5392 26.221 43.8937 24.509 45.1694ZM46.4626 35.859C46.4626 35.267 46.9364 34.7857 47.5188 34.7857C48.1015 34.7857 48.5753 35.2674 48.5753 35.859C48.5753 36.4506 48.1015 36.9324 47.5188 36.9324C46.9364 36.9319 46.4626 36.4506 46.4626 35.859ZM47.3384 35.859C47.3384 35.9605 47.4194 36.0428 47.5188 36.0428C47.6181 36.0428 47.6996 35.9605 47.6996 35.859C47.6996 35.7576 47.6181 35.6753 47.5188 35.6753C47.4194 35.6753 47.3384 35.7576 47.3384 35.859ZM46.2148 47.5794C46.2148 46.9878 46.6886 46.5061 47.2714 46.5061C47.8542 46.5061 48.3279 46.9878 48.3279 47.5794C48.3279 48.1715 47.8542 48.6528 47.2714 48.6528C46.6886 48.6528 46.2148 48.1715 46.2148 47.5794ZM47.0905 47.5794C47.0905 47.6808 47.172 47.7631 47.2714 47.7631C47.3708 47.7631 47.4522 47.6804 47.4522 47.5794C47.4522 47.4784 47.3712 47.3962 47.2714 47.3962C47.1715 47.3962 47.0905 47.4784 47.0905 47.5794ZM52.615 40.591C52.0326 40.591 51.5589 40.1092 51.5589 39.5176C51.5589 38.926 52.0326 38.4443 52.615 38.4443C53.1978 38.4443 53.6715 38.926 53.6715 39.5176C53.6715 40.1097 53.1978 40.591 52.615 40.591ZM52.615 39.7013C52.7148 39.7013 52.7958 39.6186 52.7958 39.5176C52.7958 39.4167 52.7144 39.3339 52.615 39.3339C52.5156 39.3339 52.4346 39.4162 52.4346 39.5176C52.4346 39.619 52.5156 39.7013 52.615 39.7013ZM53.8129 45.4532C53.8129 46.0453 53.3392 46.5266 52.7564 46.5266C52.174 46.5266 51.7003 46.0448 51.7003 45.4532C51.7003 44.8616 52.174 44.3799 52.7564 44.3799C53.3392 44.3799 53.8129 44.8616 53.8129 45.4532ZM52.9372 45.4532C52.9372 45.3518 52.8558 45.2695 52.7564 45.2695C52.657 45.2695 52.576 45.3518 52.576 45.4532C52.576 45.5546 52.657 45.6369 52.7564 45.6369C52.8558 45.6369 52.9372 45.5542 52.9372 45.4532ZM39.3532 49.6905C39.0624 49.1776 39.2358 48.5198 39.7402 48.224C40.2442 47.9286 40.8914 48.1043 41.1834 48.6167C41.3244 48.8654 41.3621 49.1545 41.2889 49.4316C41.2154 49.7083 41.0407 49.94 40.7964 50.0833C40.6304 50.1802 40.4491 50.2265 40.27 50.2265C39.9049 50.2265 39.5489 50.0339 39.3532 49.6905ZM40.1115 49.2457C40.161 49.3324 40.2709 49.3636 40.3581 49.3124C40.4145 49.2795 40.4356 49.2283 40.4426 49.2008C40.4496 49.1732 40.4566 49.1189 40.4242 49.0615C40.3909 49.0028 40.3296 48.9695 40.2674 48.9695C40.2372 48.9695 40.2057 48.9775 40.1777 48.9939C40.0918 49.0451 40.0621 49.1576 40.1115 49.2457ZM52.3006 41.6105L52.069 40.7524C50.3219 41.2391 49.2899 43.0792 49.7685 44.8545L50.6135 44.6196C50.2619 43.3177 51.0194 41.9677 52.3006 41.6105ZM47.1475 38.7294L46.9132 39.5866C47.2057 39.6693 47.503 39.7102 47.7985 39.7102C48.3573 39.7102 48.9094 39.5639 49.4094 39.277C50.1739 38.8384 50.7243 38.1236 50.9594 37.2647L50.1152 37.0267C49.9427 37.657 49.5395 38.181 48.9786 38.5026C48.4177 38.8237 47.7675 38.9042 47.1475 38.7294ZM45.1224 47.0314L45.5204 46.2392C43.9064 45.4025 41.923 46.055 41.0989 47.6946L41.8787 48.099C42.4834 46.8962 43.9367 46.4171 45.1224 47.0314ZM55.1072 34.3969L55.5972 33.6599C54.0967 32.6306 52.0497 33.0314 51.0352 34.5566L51.7603 35.0548C52.5051 33.9361 54.0065 33.6412 55.1072 34.3969ZM47.2862 45.6218L47.7517 44.8683C47.2928 44.5756 46.9736 44.1192 46.8523 43.5823C46.7311 43.0454 46.8234 42.4934 47.1111 42.0268L46.3698 41.554C45.9574 42.2212 45.8256 43.0121 45.9985 43.7803C46.1715 44.5489 46.629 45.2028 47.2862 45.6218ZM38.7822 50.5712L38.4394 49.7528C37.9437 49.9667 37.3968 49.9721 36.8986 49.7688C36.3994 49.5651 36.0088 49.1759 35.7978 48.6732L34.9921 49.022C35.2942 49.743 35.8556 50.3012 36.571 50.5944C36.92 50.7367 37.2852 50.8079 37.6499 50.8079C38.0344 50.8074 38.4184 50.7287 38.7822 50.5712ZM55.1256 41.098C55.299 41.9619 54.7486 42.8084 53.8979 42.9854L54.073 43.8568C55.3962 43.5819 56.2531 42.2644 55.983 40.9201L55.1256 41.098ZM54.4233 36.4653L53.5485 36.5098C53.5813 37.1739 53.8668 37.7851 54.3519 38.2312C54.8064 38.6485 55.3844 38.8744 55.9926 38.8744C56.0346 38.8744 56.0762 38.8735 56.1182 38.8713L56.0745 37.983C55.648 38.0004 55.2513 37.858 54.9391 37.572C54.6278 37.2842 54.4443 36.8919 54.4233 36.4653ZM39.4793 52.3403C38.907 52.3625 38.3557 52.1663 37.9306 51.7736L37.3412 52.4314C37.903 52.951 38.6202 53.2321 39.3751 53.2321C39.4232 53.2321 39.4723 53.2312 39.5204 53.2285C40.3278 53.1898 41.0722 52.8344 41.616 52.2268L40.9684 51.6281C40.5822 52.06 40.0533 52.3127 39.4793 52.3403ZM41.4956 51.0868L42.1432 51.6855C42.5303 51.254 43.0588 51.0009 43.6328 50.9733C44.2037 50.9413 44.7563 51.1468 45.181 51.5396L45.7704 50.8817C45.1732 50.3293 44.4043 50.0464 43.5912 50.0846C42.7838 50.1233 42.0394 50.4792 41.4956 51.0868ZM58.6863 52.9795C58.6863 56.2991 56.0276 59 52.7599 59C50.5303 59 48.5858 57.7416 47.5744 55.8881C44.9472 57.0201 42.289 57.6051 39.7534 57.6055C38.9412 57.6055 38.1412 57.5464 37.3592 57.4267C34.2106 56.9459 31.7012 55.0243 30.6473 52.286C30.3268 51.4524 29.5798 50.9142 28.7444 50.9142C27.5967 50.9142 26.6921 51.8332 26.6921 52.9626V57.5864H25.8164V52.9626C25.8164 51.3425 27.1138 50.0246 28.7085 50.0246C29.9423 50.0246 31.0098 50.7847 31.463 51.9613C32.4013 54.3993 34.6541 56.1132 37.4892 56.5464C40.5476 57.0139 43.8986 56.4984 47.2114 55.075C47.0489 54.6333 46.9338 54.1689 46.8777 53.6849C44.6022 54.6626 42.2518 55.1826 40.041 55.1826C39.3628 55.1826 38.6911 55.1328 38.0444 55.0349C35.7855 54.6889 33.8038 53.1418 32.9951 51.0934C32.6163 50.1353 32.4749 48.6403 32.5743 46.6507L32.601 46.1204L33.1107 46.2401C34.2824 46.515 35.2452 46.64 35.9615 46.6017C40.6444 46.3842 44.452 42.4925 44.452 37.9256C44.452 36.4311 44.3215 35.9004 44.2072 35.6055L44.0882 35.295L44.3478 35.0913C45.9687 33.8191 47.7828 32.6226 48.866 31.9073C49.1445 31.7236 49.3678 31.5764 49.518 31.4736C50.5785 30.7495 51.6644 30.3429 52.8378 30.2308C53.0331 30.2121 53.2306 30.2024 53.4232 30.2024C55.9773 30.2024 58.9604 31.9291 58.9604 36.7967C58.9604 40.5767 57.6175 44.2424 55.0744 47.4384C55.4974 47.6212 55.891 47.8579 56.257 48.1305C58.9709 44.657 60.4071 40.6661 60.4071 36.5587C60.4071 33.8685 59.569 31.672 57.9831 30.2068C56.5824 28.9124 54.7035 28.3061 52.6916 28.5001C51.2751 28.6366 49.9734 29.1188 48.7119 29.9746C47.8257 30.5756 46.7262 30.701 45.773 30.3113C44.5637 29.8171 43.7856 28.6504 43.7821 27.3355L43.7685 22.0022L44.6442 22L44.6578 27.3324C44.6604 28.2834 45.2231 29.1272 46.0913 29.4822C46.7845 29.766 47.5801 29.6726 48.225 29.2344C49.61 28.295 51.0439 27.7648 52.6084 27.614C54.8686 27.3974 56.9865 28.0828 58.572 29.5485C60.3453 31.1872 61.2828 33.611 61.2828 36.5587C61.2828 40.8783 59.7752 45.0676 56.9261 48.7035C58.012 49.795 58.6863 51.3083 58.6863 52.9795ZM46.8462 52.7286C46.9771 49.5255 49.5758 46.9585 52.7603 46.9585C53.2503 46.9585 53.724 47.0261 54.1799 47.1404C56.7334 44.0427 58.0847 40.4722 58.0847 36.7954C58.0847 32.5848 55.574 31.0906 53.4232 31.0906C53.2573 31.0906 53.087 31.0995 52.9197 31.1156C51.8956 31.2134 50.9428 31.5719 50.0071 32.2107C49.8543 32.3152 49.627 32.4656 49.3433 32.6524C48.3257 33.3241 46.6566 34.425 45.1276 35.6037C45.2375 36.0183 45.3277 36.6748 45.3277 37.9248C45.3277 42.96 41.1453 47.2512 36.0049 47.4896C35.328 47.5247 34.4601 47.4357 33.4285 47.2209C33.3834 48.7991 33.5131 50.0166 33.8077 50.7621C34.5035 52.5231 36.2177 53.8553 38.1749 54.1551C40.8633 54.563 43.9257 54.0434 46.8462 52.7286ZM57.8106 52.9795C57.8106 50.1504 55.5447 47.8485 52.7599 47.8485C49.9751 47.8485 47.7092 50.15 47.7092 52.9795C47.7092 55.8089 49.9751 58.1104 52.7599 58.1104C55.5447 58.1104 57.8106 55.8085 57.8106 52.9795ZM52.252 54.6391L50.5141 52.874L49.895 53.503L52.3785 56.026L55.6944 51.1041L54.9719 50.6015L52.252 54.6391Z" fill="#3A643C"/>
</svg>
