<svg width="78" height="78" viewBox="0 0 78 78" fill="none" xmlns="http://www.w3.org/2000/svg">
<path d="M38 70C55.6731 70 70 55.6731 70 38C70 20.3269 55.6731 6 38 6C20.3269 6 6 20.3269 6 38C6 55.6731 20.3269 70 38 70Z" fill="#E0E8E2"/>
<path d="M32.2147 50.7513C34.2036 51.9428 37.1143 52.9397 38.4483 52.9397C42.5718 52.9397 48.6114 47.1282 49.0723 40.5871C49.0965 40.3926 49.0238 40.1981 48.8782 40.0522C45.1914 35.8698 44.3424 30.5932 44.1727 29.3288C44.2211 29.1343 44.1484 29.037 44.1484 29.037C44.0999 28.9884 43.9543 29.11 43.9058 29.1829C43.3965 29.8638 42.8628 30.3744 42.4505 30.6662C42.2565 30.7878 41.9897 30.7148 41.9169 30.4717C41.359 28.8668 39.3701 27.7482 38.7394 27.4078C38.6181 27.3349 38.4726 27.3349 38.327 27.3835C36.9687 27.8212 29.4981 30.6905 28.5278 39.1768C28.3095 40.9519 28.3581 42.4838 28.552 43.7726C29.1827 48.1251 32.6512 48.6601 34.0095 48.7087C34.2036 48.7087 34.3006 48.9519 34.1551 49.0978C29.7937 51.8941 22.7793 46.423 22.7793 46.423" fill="#FDF8E5"/>
<path d="M32.2147 50.7513C34.2036 51.9428 37.1143 52.9397 38.4483 52.9397C42.5718 52.9397 48.6114 47.1282 49.0723 40.5871C49.0965 40.3926 49.0238 40.1981 48.8782 40.0522C45.1914 35.8698 44.3424 30.5932 44.1727 29.3288C44.2211 29.1343 44.1484 29.037 44.1484 29.037C44.0999 28.9884 43.9543 29.11 43.9058 29.1829C43.3965 29.8638 42.8628 30.3744 42.4505 30.6662C42.2565 30.7878 41.9897 30.7148 41.9169 30.4717C41.359 28.8668 39.3701 27.7482 38.7394 27.4078C38.6181 27.3349 38.4726 27.3349 38.327 27.3835C36.9687 27.8212 29.4981 30.6905 28.5278 39.1768C28.3095 40.9519 28.3581 42.4838 28.552 43.7726C29.1827 48.1251 32.6512 48.6601 34.0095 48.7087C34.2036 48.7087 34.3006 48.9519 34.1551 49.0978C29.7937 51.8941 22.7793 46.423 22.7793 46.423" stroke="#3A643C" stroke-miterlimit="10" stroke-linecap="round" stroke-linejoin="round"/>
<path d="M45.0213 35.9179C50.2324 35.9179 54.4567 31.683 54.4567 26.4589C54.4567 21.2349 50.2324 17 45.0213 17C39.8103 17 35.5859 21.2349 35.5859 26.4589C35.5859 31.683 39.8103 35.9179 45.0213 35.9179Z" stroke="#3A643C" stroke-miterlimit="10" stroke-linecap="round" stroke-linejoin="round"/>
<path d="M53.6312 30.0859L52.4531 32.1275L61.9642 37.6428L63.1422 35.6012L53.6312 30.0859Z" fill="#3A643C"/>
<path d="M26.0876 48.9149C21.1469 54.8724 19.6739 48.9026 19.5041 45.0121C19.3343 41.1215 24.5007 34.7507 25.6165 32.3434C26.7323 29.9604 25.1314 24.9513 31.4863 21.7659C36.7983 19.0912 40.1698 21.7902 41.1158 22.7385C41.2613 22.8844 41.5039 22.8844 41.6494 22.7385C44.366 19.8206 49.6779 23.1276 50.0661 28.8662C50.4784 34.7993 52.4674 36.4285 53.292 37.62C54.8444 39.8814 58.6768 47.6382 55.0141 50.1428C51.3273 52.6716 49.8478 49.5349 49.8478 49.5349C49.8478 49.5349 47.689 51.9421 45.0937 50.9695C44.6814 50.8236 44.3418 50.5561 44.0749 50.2887" stroke="#3A643C" stroke-miterlimit="10" stroke-linecap="round" stroke-linejoin="round"/>
<path d="M44.1717 29.3283C44.1231 29.2798 44.0747 29.2555 44.002 29.207" stroke="#0079AB" stroke-miterlimit="10" stroke-linecap="round" stroke-linejoin="round"/>
<path d="M33.7178 51.5527V56.9995" stroke="#3A643C" stroke-miterlimit="10" stroke-linecap="round" stroke-linejoin="round"/>
<path d="M42.959 51.1641V57" stroke="#3A643C" stroke-miterlimit="10" stroke-linecap="round" stroke-linejoin="round"/>
</svg>
