<svg width="84" height="84" viewBox="0 0 84 84" fill="none" xmlns="http://www.w3.org/2000/svg">
<rect width="84" height="84" rx="42" fill="white"/>
<path d="M42 74C59.6731 74 74 59.6731 74 42C74 24.3269 59.6731 10 42 10C24.3269 10 10 24.3269 10 42C10 59.6731 24.3269 74 42 74Z" fill="#E0E8E2"/>
<path d="M59.8151 33.0955C59.8138 32.7252 59.6027 32.3671 59.2725 32.1751L51.8714 27.9882C51.569 27.8171 51.2004 27.8173 50.8909 27.9752C45.936 30.5017 39.8612 30.5007 34.9072 27.972C34.6012 27.8157 34.2371 27.8136 33.9362 27.9796L26.511 32.075C26.1808 32.267 25.9697 32.6252 25.9684 32.9955C25.9282 44.1038 33.1179 55.5205 42.8919 60.1487C43.2852 60.3664 43.1453 60.3664 43.5386 60.1487C53.4967 54.6309 59.8182 44.1687 59.8151 33.0955Z" fill="#FDF8E5" stroke="#3A643C" stroke-miterlimit="10"/>
<path opacity="0.5" d="M40.4112 36.4187C40.2786 36.7271 40.2786 37.118 40.2786 37.8999V39.4974C40.2786 39.5353 40.2786 39.5543 40.2664 39.5661C40.2541 39.5779 40.2344 39.5779 40.195 39.5779H38.5365C37.7248 39.5779 37.3189 39.5779 36.9988 39.7057C36.5719 39.876 36.2328 40.2026 36.056 40.6138C35.9233 40.9222 35.9233 41.3131 35.9233 42.095C35.9233 42.8769 35.9233 43.2678 36.056 43.5762C36.2328 43.9873 36.5719 44.314 36.9988 44.4843C37.3189 44.612 37.7248 44.612 38.5365 44.612H40.195C40.2344 44.612 40.2541 44.612 40.2664 44.6238C40.2786 44.6356 40.2786 44.6546 40.2786 44.6926V46.2901C40.2786 47.072 40.2786 47.4629 40.4112 47.7713C40.5881 48.1824 40.9272 48.5091 41.3541 48.6794C41.6742 48.8072 42.0801 48.8072 42.8918 48.8072C43.7035 48.8072 44.1094 48.8072 44.4295 48.6794C44.8564 48.5091 45.1956 48.1824 45.3724 47.7713C45.505 47.4629 45.505 47.072 45.505 46.2901V44.6926C45.505 44.6546 45.505 44.6356 45.5172 44.6238C45.5295 44.612 45.5492 44.612 45.5886 44.612H47.2471C48.0588 44.612 48.4647 44.612 48.7848 44.4843C49.2117 44.314 49.5509 43.9873 49.7277 43.5762C49.8603 43.2678 49.8603 42.8769 49.8603 42.095C49.8603 41.3131 49.8603 40.9222 49.7277 40.6138C49.5509 40.2026 49.2117 39.876 48.7848 39.7057C48.4647 39.5779 48.0588 39.5779 47.2471 39.5779H45.5886C45.5492 39.5779 45.5295 39.5779 45.5172 39.5661C45.505 39.5543 45.505 39.5353 45.505 39.4974V37.8999C45.505 37.118 45.505 36.7271 45.3724 36.4187C45.1956 36.0075 44.8564 35.6809 44.4295 35.5105C44.1094 35.3828 43.7035 35.3828 42.8918 35.3828C42.0801 35.3828 41.6742 35.3828 41.3541 35.5105C40.9272 35.6809 40.5881 36.0075 40.4112 36.4187Z" fill="#E0E8E2" stroke="#3A643C"/>
<ellipse opacity="0.5" cx="35.25" cy="55.1667" rx="3.125" ry="2.60417" stroke="#3A643C"/>
<path d="M35.25 52.25L35.25 52.4583" stroke="#3A643C" stroke-linecap="round"/>
<path d="M35.25 57.457V58.2904" stroke="#3A643C" stroke-linecap="round"/>
<path d="M32.6159 53.6105C32.828 53.7872 33.172 53.7872 33.3841 53.6105C33.5962 53.4337 33.5962 53.1471 33.3841 52.9703L32.6159 53.6105ZM32.75 53.082L32.3659 53.4021L32.6159 53.6105L33 53.2904L33.3841 52.9703L33.1341 52.7619L32.75 53.082Z" fill="#3A643C"/>
<path d="M36.7409 53.2828C36.5288 53.4596 36.5288 53.7462 36.7409 53.923C36.953 54.0997 37.297 54.0997 37.5091 53.923L36.7409 53.2828ZM37.75 53.082L37.3659 52.7619L36.7409 53.2828L37.125 53.6029L37.5091 53.923L38.1341 53.4021L37.75 53.082Z" fill="#3A643C"/>
<path d="M37.8841 56.7216C37.672 56.5448 37.328 56.5448 37.1159 56.7216C36.9038 56.8984 36.9038 57.185 37.1159 57.3618L37.8841 56.7216ZM37.75 57.25L38.1341 56.9299L37.8841 56.7216L37.5 57.0417L37.1159 57.3618L37.3659 57.5701L37.75 57.25Z" fill="#3A643C"/>
<path d="M31.5 55.166L32 55.166" stroke="#3A643C" stroke-linecap="round"/>
<path d="M38 55.166L39 55.166" stroke="#3A643C" stroke-linecap="round"/>
<path d="M33.7591 57.0493C33.9712 56.8725 33.9712 56.5859 33.7591 56.4091C33.547 56.2323 33.203 56.2323 32.9909 56.4091L33.7591 57.0493ZM32.75 57.25L33.1341 57.5701L33.7591 57.0493L33.375 56.7292L32.9909 56.4091L32.3659 56.9299L32.75 57.25Z" fill="#3A643C"/>
<path d="M35.5 53.9167C35.5 54.1468 35.2761 54.3333 35 54.3333C34.7239 54.3333 34.5 54.1468 34.5 53.9167C34.5 53.6865 34.7239 53.5 35 53.5C35.2761 53.5 35.5 53.6865 35.5 53.9167Z" stroke="#3A643C"/>
<path d="M34.5 55.5827C34.5 55.8128 34.2761 55.9993 34 55.9993C33.7239 55.9993 33.5 55.8128 33.5 55.5827C33.5 55.3526 33.7239 55.166 34 55.166C34.2761 55.166 34.5 55.3526 34.5 55.5827Z" stroke="#3A643C"/>
<path d="M37.25 55.9987C37.25 56.2288 37.0261 56.4154 36.75 56.4154C36.4739 56.4154 36.25 56.2288 36.25 55.9987C36.25 55.7686 36.4739 55.582 36.75 55.582C37.0261 55.582 37.25 55.7686 37.25 55.9987Z" stroke="#3A643C"/>
<ellipse cx="0.5" cy="0.416667" rx="0.5" ry="0.416667" transform="matrix(1 0 0 -1 34.75 52.041)" stroke="#3A643C"/>
<path d="M35.75 58.7083C35.75 58.4782 35.5261 58.2917 35.25 58.2917C34.9739 58.2917 34.75 58.4782 34.75 58.7083C34.75 58.9385 34.9739 59.125 35.25 59.125C35.5261 59.125 35.75 58.9385 35.75 58.7083Z" stroke="#3A643C"/>
<ellipse cx="0.5" cy="0.416667" rx="0.5" ry="0.416667" transform="matrix(1 0 0 -1 31.75 53.082)" stroke="#3A643C"/>
<ellipse cx="0.5" cy="0.416667" rx="0.5" ry="0.416667" transform="matrix(1 0 0 -1 37.75 53.082)" stroke="#3A643C"/>
<ellipse cx="0.5" cy="0.416667" rx="0.5" ry="0.416667" transform="matrix(1 0 0 -1 37.75 58.082)" stroke="#3A643C"/>
<path d="M31.5 55.1654C31.5 54.9352 31.2761 54.7487 31 54.7487C30.7239 54.7487 30.5 54.9352 30.5 55.1654C30.5 55.3955 30.7239 55.582 31 55.582C31.2761 55.582 31.5 55.3955 31.5 55.1654Z" stroke="#3A643C"/>
<path d="M40 55.1654C40 54.9352 39.7761 54.7487 39.5 54.7487C39.2239 54.7487 39 54.9352 39 55.1654C39 55.3955 39.2239 55.582 39.5 55.582C39.7761 55.582 40 55.3955 40 55.1654Z" stroke="#3A643C"/>
<ellipse cx="0.5" cy="0.416667" rx="0.5" ry="0.416667" transform="matrix(1 0 0 -1 31.75 58.082)" stroke="#3A643C"/>
</svg>
