<svg width="84" height="84" viewBox="0 0 84 84" fill="none" xmlns="http://www.w3.org/2000/svg">
<rect width="84" height="84" rx="42" fill="white"/>
<path d="M42 74C59.6731 74 74 59.6731 74 42C74 24.3269 59.6731 10 42 10C24.3269 10 10 24.3269 10 42C10 59.6731 24.3269 74 42 74Z" fill="#E0E8E2"/>
<path d="M37.366 34.8512C37.2564 34.7569 37.1674 34.6408 37.1045 34.5103C37.0417 34.3797 37.0064 34.2376 37.0008 34.0927C36.9952 33.9478 37.0195 33.8033 37.0722 33.6683C37.1248 33.5333 37.2046 33.4107 37.3067 33.3081C37.4087 33.2056 37.5308 33.1254 37.6651 33.0725C37.7995 33.0196 37.9433 32.9952 38.0875 33.0008C38.2317 33.0064 38.3732 33.0419 38.5031 33.105C38.633 33.1682 38.7485 33.2576 38.8424 33.3677L46.6955 41.2583C46.8905 41.4554 47 41.7221 47 42C47 42.2779 46.8905 42.5446 46.6955 42.7417L38.8424 50.6323C38.7485 50.7424 38.633 50.8318 38.5031 50.895C38.3732 50.9581 38.2317 50.9936 38.0875 50.9992C37.9433 51.0048 37.7995 50.9804 37.6651 50.9275C37.5308 50.8746 37.4087 50.7944 37.3067 50.6919C37.2046 50.5893 37.1248 50.4667 37.0721 50.3317C37.0195 50.1967 36.9952 50.0522 37.0008 49.9073C37.0063 49.7624 37.0417 49.6203 37.1045 49.4897C37.1674 49.3592 37.2564 49.2431 37.366 49.1488L44.4757 42L37.366 34.8512Z" fill="#3A643B"/>
</svg>
