<svg width="32" height="32" viewBox="0 0 32 32" fill="none" xmlns="http://www.w3.org/2000/svg">
<path d="M13.9004 14.0784C14.5776 13.3045 14.4992 12.1261 13.7254 11.4488L11.5731 9.56699C11.1981 9.23858 10.7174 9.07494 10.2231 9.11017C9.72541 9.14199 9.272 9.36586 8.94586 9.742L7.87541 10.9636C7.20041 11.734 6.89813 12.7522 7.04358 13.759C7.31176 15.6034 8.28335 18.4046 11.4107 21.2852L12.705 22.4192C15.9891 25.1772 18.9185 25.7795 20.8004 25.8022H20.8413C21.8482 25.8022 22.8016 25.3693 23.4686 24.6068L24.5391 23.3852C25.2163 22.6113 25.1379 21.4329 24.3641 20.7556L22.2175 18.8761C21.8425 18.5477 21.3595 18.384 20.8618 18.4193C20.3641 18.4545 19.9073 18.6806 19.5822 19.059L18.9686 19.7659C18.7129 20.0624 18.3175 20.1908 17.9595 20.0886C15.4254 19.3761 13.8778 17.1852 13.1799 15.9431C12.9674 15.5647 13.014 15.0909 13.2992 14.7681L13.9004 14.0784ZM13.0243 13.3113L12.4163 14.0068C11.8084 14.7022 11.7038 15.7113 12.1572 16.517C12.9424 17.9159 14.6993 20.3864 17.6379 21.2126C18.4266 21.4342 19.2936 21.166 19.8425 20.5285L20.4539 19.8216C20.5766 19.6796 20.7482 19.5944 20.9334 19.5807C21.1198 19.5694 21.3004 19.6307 21.4425 19.7523L23.5891 21.6319C23.88 21.8853 23.9095 22.3296 23.6561 22.6182L22.5857 23.8398C22.1345 24.3546 21.4857 24.6455 20.8084 24.6364C19.1186 24.616 16.4674 24.0603 13.4571 21.5318L12.1832 20.4148C9.31733 17.7739 8.4311 15.2453 8.19226 13.5874C8.09681 12.9181 8.29681 12.2375 8.74796 11.7227L9.81842 10.5011C9.94115 10.3613 10.1127 10.2772 10.298 10.2624C10.3127 10.2624 10.3298 10.259 10.3445 10.259C10.5127 10.259 10.6764 10.3204 10.8036 10.434L12.9559 12.3159C13.2479 12.5772 13.2777 13.0204 13.0243 13.3113Z" fill="#3A643B"/>
</svg>
