<svg width="24" height="24" viewBox="0 0 24 24" fill="none" xmlns="http://www.w3.org/2000/svg">
<path d="M10 2C14.4183 2 18 5.58172 18 10C18 11.8486 17.3703 13.5487 16.3174 14.9033L19.707 18.293L19.7754 18.3691C20.0957 18.7619 20.0731 19.3409 19.707 19.707C19.3409 20.0731 18.7619 20.0957 18.3691 19.7754L18.293 19.707L14.9033 16.3174C13.5487 17.3703 11.8486 18 10 18C5.58172 18 2 14.4183 2 10C2 5.58172 5.58172 2 10 2ZM10 4C6.68629 4 4 6.68629 4 10C4 13.3137 6.68629 16 10 16C13.3137 16 16 13.3137 16 10C16 6.68629 13.3137 4 10 4Z" fill="#2E2F2E"/>
</svg>
