<svg width="15" height="15" viewBox="0 0 15 15" fill="none" xmlns="http://www.w3.org/2000/svg">
<path d="M6.70377 2.30278C6.92503 1.85452 7.56424 1.85452 7.78551 2.30278L8.96824 4.69886C9.05603 4.87671 9.22563 5.00003 9.42188 5.02872L12.0678 5.41545C12.5623 5.48774 12.7594 6.09564 12.4014 6.44437L10.4878 8.30821C10.3455 8.44678 10.2806 8.64651 10.3141 8.84226L10.7656 11.4746C10.8501 11.9674 10.3329 12.3432 9.89038 12.1105L7.52538 10.8667C7.34963 10.7743 7.13964 10.7743 6.96389 10.8667L4.59889 12.1105C4.15638 12.3432 3.63913 11.9674 3.72365 11.4746L4.17513 8.84226C4.20871 8.64651 4.14377 8.44678 4.00149 8.30821L2.0879 6.44437C1.72986 6.09564 1.92697 5.48774 2.42152 5.41545L5.0674 5.02872C5.26364 5.00003 5.43325 4.87671 5.52103 4.69886L6.70377 2.30278Z" fill="#F79420"/>
</svg>
